<svg id="Layer_1" data-name="Layer 1" xmlns="http://www.w3.org/2000/svg" viewBox="0 0 64 64"><defs><style>.cls-1{fill:#f7787a;}</style></defs><title>ICONS </title><path class="cls-1" d="M62.75,32.79A10.5,10.5,0,0,0,56.06,23,10.52,10.52,0,0,0,42,9.14,10.52,10.52,0,0,0,22.49,9,10.52,10.52,0,0,0,8.43,22.76a10.52,10.52,0,0,0,0,19.77A10.53,10.53,0,0,0,17.9,57.6a10.32,10.32,0,0,0,4.31-.93A10.52,10.52,0,0,0,42,56.44,10.52,10.52,0,0,0,56.06,42.58,10.5,10.5,0,0,0,62.75,32.79ZM20.17,24.45a4.46,4.46,0,1,1,4.46,4.46A4.46,4.46,0,0,1,20.17,24.45ZM26.05,44.1a1,1,0,0,1-.21.2c-.82.65-2.12-.06-2.12-.06l-2-2A2.42,2.42,0,0,1,22,39.8L38.71,23.21c.52-.79,2.06-.23,2.06-.23l2,2a2.13,2.13,0,0,1-.23,2.52S26.85,43.12,26.05,44.1ZM39.62,46a4.46,4.46,0,1,1,4.47-4.46A4.46,4.46,0,0,1,39.62,46Z"/></svg>